<svg width="140" height="50" viewBox="0 0 140 50" fill="none" xmlns="http://www.w3.org/2000/svg">
<g clip-path="url(#clip0_517_35849)">
<path d="M24.843 49.7031C38.5634 49.7031 49.686 38.5767 49.686 24.8515C49.686 11.1264 38.5634 0 24.843 0C11.1226 0 0 11.1264 0 24.8515C0 38.5767 11.1226 49.7031 24.843 49.7031Z" fill="#F7BEC5"/>
<path d="M3.03418 36.5614C7.61077 34.8611 15.1336 32.7005 24.6074 32.8033C34.199 32.9061 41.7521 35.2875 46.3046 37.1123C45.1642 38.9853 43.304 41.5269 40.4183 43.8872C35.8173 47.6453 31.0565 48.9403 28.5003 49.4366C26.0925 49.6847 18.8148 50.1173 11.6247 45.5636C6.90294 42.5679 4.28645 38.731 3.03418 36.5614Z" fill="#F39FAF"/>
<path d="M25.3474 38.979C25.3777 39.5917 25.039 40.1048 24.6459 40.1423C24.2165 40.1802 23.8082 39.6504 23.8385 38.979C23.8385 34.5765 23.8385 30.1777 23.8385 25.7753C23.8113 25.1075 24.2195 24.5774 24.6459 24.6187C25.039 24.6566 25.3777 25.166 25.3474 25.7753C25.3474 30.1777 25.3474 34.5802 25.3474 38.979Z" fill="#68B42E" stroke="#1A1C18" stroke-width="2.2652" stroke-miterlimit="10"/>
<path d="M18.3407 35.2003C18.2742 36.4019 18.9064 37.5121 19.9348 38.0053C21.2143 38.6227 22.4515 37.963 22.5725 37.8966C22.5785 37.7814 22.6209 36.3019 21.4079 35.4121C20.5247 34.7677 19.3329 34.686 18.3407 35.2003Z" fill="#68B42E" stroke="#1A1C18" stroke-width="2.2652" stroke-miterlimit="10"/>
<path d="M30.5791 35.2003C30.6456 36.4019 30.0134 37.5121 28.985 38.0053C27.7055 38.6227 26.4683 37.963 26.3473 37.8966C26.3413 37.7814 26.2989 36.3019 27.5119 35.4121C28.3951 34.7677 29.5839 34.686 30.5791 35.2003Z" fill="#68B42E" stroke="#1A1C18" stroke-width="2.2652" stroke-miterlimit="10"/>
<path d="M35.1001 25.3529C34.81 24.1105 33.7793 23.0395 33.3889 22.6365C32.6417 21.8576 31.8746 21.3808 31.3377 21.0988C31.8812 20.9208 32.8321 20.5347 33.7159 19.6752C34.0461 19.3529 35.3172 18.0434 35.4672 16.3109C35.6939 13.6987 33.3457 10.4183 30.0967 10.4049C27.7383 10.3948 25.5267 12.1072 24.7929 14.6287C24.7061 14.2997 23.9589 11.6136 21.5005 10.6601C18.8553 9.63602 15.3861 11.0596 14.312 14.0882C13.0478 17.6539 16.7904 20.6187 17.6477 21.27C16.0633 22.237 14.272 23.8487 14.4221 26.2594C14.6156 29.3819 17.2875 31.7524 20.3897 31.5543C22.4912 31.4201 23.8021 29.9091 24.5927 28.4217C25.7869 30.8358 28.3554 32.1453 30.7571 31.6583C33.8694 31.0272 35.624 27.5991 35.1001 25.3529Z" fill="#CA4592"/>
<path d="M28.6094 18.7445C27.7282 17.8782 26.3029 17.8782 25.4251 18.7445L24.7676 19.3908L24.11 18.7445C23.2287 17.8782 21.8035 17.8782 20.9256 18.7445C20.0443 19.6108 20.0443 21.0117 20.9256 21.8746L21.5832 22.521C22.6262 23.323 23.6694 24.125 24.7125 24.927C25.7934 24.125 26.8744 23.323 27.9554 22.521L28.6129 21.8746C29.4908 21.0117 29.4908 19.6108 28.6094 18.7445Z" fill="#F6E81D" stroke="#1A1C18" stroke-width="2.2652" stroke-miterlimit="10"/>
<path d="M17.8614 21.2001C16.7058 19.3055 17.1079 16.8686 18.8041 15.4312C20.5273 13.9677 23.1325 13.922 24.9233 15.3365C24.805 14.7746 24.4333 13.3961 23.1831 12.1842C22.2033 11.2368 21.1423 10.835 20.578 10.6652C20.2063 10.6292 18.1689 10.4659 16.3882 11.9C14.5264 13.3961 14.3812 15.4835 14.3643 15.8265C14.4453 16.4047 14.6143 17.1364 14.9758 17.9204C15.8003 19.704 17.1451 20.733 17.8614 21.2001Z" fill="#AE327E"/>
<path d="M18.2011 21.5107C17.1238 23.3643 17.448 25.7246 18.9706 27.212C20.4704 28.6732 22.792 28.9576 24.6127 27.8952C24.5276 28.2679 24.1968 29.5101 23.0049 30.4581C21.9079 31.3311 20.7421 31.4323 20.3427 31.4488C19.8318 31.4224 18.0767 31.2755 16.5442 29.8893C15.2474 28.7157 14.8414 27.3198 14.7137 26.7837C14.658 26.3424 14.5598 25.1133 15.2638 23.8318C16.2036 22.1286 17.8605 21.6088 18.2011 21.5107Z" fill="#AE327E"/>
<path d="M30.0781 14.5116C30.4515 14.5616 31.0417 14.8652 31.3385 15.2721C31.6385 15.6824 31.7454 16.196 31.6885 16.6963C31.6218 17.3001 32.5655 17.2934 32.632 16.6963C32.809 15.1153 31.6084 13.7645 30.0781 13.5677C29.4746 13.491 29.4812 14.4349 30.0781 14.5116Z" fill="white"/>
<path d="M35.1001 25.3529C34.81 24.1105 33.7793 23.0395 33.3889 22.6365C32.6417 21.8576 31.8746 21.3808 31.3377 21.0988C31.8812 20.9208 32.8321 20.5347 33.7159 19.6752C34.0461 19.3529 35.3172 18.0434 35.4672 16.3109C35.6939 13.6987 33.3457 10.4183 30.0967 10.4049C27.7383 10.3948 25.5267 12.1072 24.7929 14.6287C24.7061 14.2997 23.9589 11.6136 21.5005 10.6601C18.8553 9.63602 15.3861 11.0596 14.312 14.0882C13.0478 17.6539 16.7904 20.6187 17.6477 21.27C16.0633 22.237 14.272 23.8487 14.4221 26.2594C14.6156 29.3819 17.2875 31.7524 20.3897 31.5543C22.4912 31.4201 23.8021 29.9091 24.5927 28.4217C25.7869 30.8358 28.3554 32.1453 30.7571 31.6583C33.8694 31.0272 35.624 27.5991 35.1001 25.3529Z" stroke="#1A1C18" stroke-width="2.2652" stroke-miterlimit="10"/>
<path d="M58.0371 21.8082H60.2741V30.2538H65.0371V21.8082H67.2741V30.2538H68.6436L68.6284 34.9103H66.4067V32.4603H58.0371V21.8082ZM69.3908 21.8082H74.3213C75.2747 21.8082 76.0356 22.077 76.6039 22.6147C77.1719 23.1524 77.4561 23.8828 77.4561 24.806C77.4561 25.9219 76.9539 26.6676 75.9495 27.0429C76.9539 27.4386 77.4561 28.1995 77.4561 29.3255C77.4561 30.2893 77.1567 31.0552 76.5582 31.6234C75.9595 32.1815 75.1682 32.4603 74.1843 32.4603H69.3908V21.8082ZM74.0474 28.1234H71.6278V30.2234H73.9104C74.3061 30.2234 74.6256 30.127 74.8691 29.9342C75.1126 29.7313 75.2343 29.4676 75.2343 29.1429C75.2343 28.8284 75.1225 28.5799 74.8995 28.3973C74.6762 28.2147 74.3921 28.1234 74.0474 28.1234ZM74.0474 24.0451H71.6278V25.8864H74.0474C74.4023 25.8864 74.6865 25.8002 74.8995 25.6277C75.1225 25.4552 75.2343 25.227 75.2343 24.9429C75.2343 24.6589 75.1278 24.4408 74.9147 24.2886C74.7017 24.1263 74.4126 24.0451 74.0474 24.0451ZM78.5747 21.8082H86.366V24.0147H80.8116V26.0082H85.6051V28.2299H80.8116V30.2538H86.366V32.4603H78.5747V21.8082ZM87.0287 21.8082H95.3983V24.0147H92.3244V32.4603H90.1026V24.0147H87.0287V21.8082ZM96.1163 27.2103C96.1163 25.6683 96.6185 24.3596 97.6228 23.2842C98.6374 22.1987 99.8852 21.656 101.366 21.656C102.847 21.656 104.1 22.1987 105.125 23.2842C106.15 24.3596 106.662 25.6683 106.662 27.2103C106.662 28.7118 106.15 29.99 105.125 31.0451C104.1 32.0901 102.847 32.6125 101.366 32.6125C99.8852 32.6125 98.6374 32.0901 97.6228 31.0451C96.6185 29.99 96.1163 28.7118 96.1163 27.2103ZM103.558 24.8364C102.969 24.1871 102.239 23.8625 101.366 23.8625C100.494 23.8625 99.7685 24.1871 99.1902 24.8364C98.6222 25.4755 98.338 26.2669 98.338 27.2103C98.338 28.1132 98.6222 28.8741 99.1902 29.4929C99.7685 30.1016 100.494 30.406 101.366 30.406C102.239 30.406 102.969 30.0965 103.558 29.4777C104.146 28.8589 104.44 28.1031 104.44 27.2103C104.44 26.2669 104.146 25.4755 103.558 24.8364ZM108.819 30.1929C107.987 29.361 107.571 28.3465 107.571 27.1495C107.571 25.9523 107.987 24.9429 108.819 24.1212C109.651 23.2893 110.711 22.777 111.999 22.5842V21.1995H114.099V22.569C115.398 22.7516 116.458 23.2589 117.28 24.0908C118.112 24.9226 118.527 25.9422 118.527 27.1495C118.527 28.3567 118.112 29.3763 117.28 30.2082C116.458 31.0299 115.398 31.5321 114.099 31.7147V33.069H111.999V31.7147C110.711 31.5218 109.651 31.0147 108.819 30.1929ZM110.325 25.6734C109.869 26.0893 109.641 26.5763 109.641 27.1342C109.641 27.6922 109.869 28.1842 110.325 28.6103C110.782 29.0263 111.34 29.3052 111.999 29.4473V24.8364C111.34 24.9784 110.782 25.2574 110.325 25.6734ZM114.099 24.8516V29.4473C114.718 29.2951 115.241 29.011 115.667 28.5951C116.103 28.1792 116.321 27.6973 116.321 27.1495C116.321 26.5915 116.103 26.1045 115.667 25.6886C115.241 25.2726 114.718 24.9937 114.099 24.8516ZM119.448 27.2103C119.448 25.6683 119.95 24.3596 120.954 23.2842C121.968 22.1987 123.216 21.656 124.698 21.656C126.179 21.656 127.432 22.1987 128.456 23.2842C129.481 24.3596 129.993 25.6683 129.993 27.2103C129.993 28.7118 129.481 29.99 128.456 31.0451C127.432 32.0901 126.179 32.6125 124.698 32.6125C123.216 32.6125 121.968 32.0901 120.954 31.0451C119.95 29.99 119.448 28.7118 119.448 27.2103ZM126.889 24.8364C126.3 24.1871 125.57 23.8625 124.698 23.8625C123.825 23.8625 123.1 24.1871 122.522 24.8364C121.953 25.4755 121.669 26.2669 121.669 27.2103C121.669 28.1132 121.953 28.8741 122.522 29.4929C123.1 30.1016 123.825 30.406 124.698 30.406C125.57 30.406 126.3 30.0965 126.889 29.4777C127.477 28.8589 127.772 28.1031 127.772 27.2103C127.772 26.2669 127.477 25.4755 126.889 24.8364ZM133.641 32.4603H131.404V21.8082H135.178C136.365 21.8082 137.299 22.1074 137.978 22.706C138.668 23.2944 139.013 24.1465 139.013 25.2625C139.013 26.3784 138.673 27.2255 137.994 27.8038C137.314 28.3719 136.376 28.656 135.178 28.656H133.641V32.4603ZM135.148 24.0147H133.641V26.4495H135.148C136.244 26.4495 136.791 26.0335 136.791 25.2016C136.791 24.8364 136.654 24.5473 136.381 24.3342C136.107 24.1212 135.696 24.0147 135.148 24.0147Z" fill="#CA4592"/>
</g>
<defs>
<clipPath id="clip0_517_35849">
<rect width="139.752" height="50" fill="white"/>
</clipPath>
</defs>
</svg>
